<mxfile host="app.diagrams.net" modified="2024-04-14T18:39:31.109Z" agent="Mozilla/5.0 (Windows NT 10.0; Win64; x64) AppleWebKit/537.36 (KHTML, like Gecko) Chrome/123.0.0.0 Safari/537.36" etag="G9N5rIZwZtLf2ql9GAay" version="24.2.2" type="device">
  <diagram name="Страница — 1" id="4yH80kUzvXJpZru1wsrU">
    <mxGraphModel dx="2117" dy="522" grid="0" gridSize="10" guides="1" tooltips="1" connect="1" arrows="1" fold="1" page="1" pageScale="1" pageWidth="827" pageHeight="1169" math="0" shadow="0">
      <root>
        <mxCell id="0" />
        <mxCell id="1" parent="0" />
        <mxCell id="EZmoYBDLElet8mVWKqFx-4" style="edgeStyle=orthogonalEdgeStyle;rounded=0;orthogonalLoop=1;jettySize=auto;html=1;exitX=0.5;exitY=0;exitDx=0;exitDy=0;entryX=0.5;entryY=1;entryDx=0;entryDy=0;" parent="1" source="lv1SbRGUw3e7nfGYEbwt-6" target="EZmoYBDLElet8mVWKqFx-1" edge="1">
          <mxGeometry relative="1" as="geometry" />
        </mxCell>
        <mxCell id="lv1SbRGUw3e7nfGYEbwt-6" value="Data &lt;br&gt;Access" style="shape=module;align=left;spacingLeft=20;align=center;verticalAlign=top;whiteSpace=wrap;html=1;fontSize=16;" parent="1" vertex="1">
          <mxGeometry x="-770" y="220" width="139" height="64" as="geometry" />
        </mxCell>
        <mxCell id="EZmoYBDLElet8mVWKqFx-1" value="Business &lt;br style=&quot;font-size: 16px;&quot;&gt;Logic" style="shape=module;align=left;spacingLeft=20;align=center;verticalAlign=top;whiteSpace=wrap;html=1;fontSize=16;" parent="1" vertex="1">
          <mxGeometry x="-770" y="120" width="139" height="64" as="geometry" />
        </mxCell>
        <mxCell id="EZmoYBDLElet8mVWKqFx-3" style="edgeStyle=orthogonalEdgeStyle;rounded=0;orthogonalLoop=1;jettySize=auto;html=1;" parent="1" source="EZmoYBDLElet8mVWKqFx-2" target="EZmoYBDLElet8mVWKqFx-1" edge="1">
          <mxGeometry relative="1" as="geometry" />
        </mxCell>
        <mxCell id="EZmoYBDLElet8mVWKqFx-2" value="UI" style="shape=module;align=left;spacingLeft=20;align=center;verticalAlign=top;whiteSpace=wrap;html=1;fontSize=16;" parent="1" vertex="1">
          <mxGeometry x="-770" y="20" width="139" height="64" as="geometry" />
        </mxCell>
      </root>
    </mxGraphModel>
  </diagram>
</mxfile>
